<svg width="31" height="36" viewBox="0 0 31 36" fill="none" xmlns="http://www.w3.org/2000/svg">
<mask id="mask0_199_83" style="mask-type:alpha" maskUnits="userSpaceOnUse" x="0" y="0" width="31" height="36">
<g clip-path="url(#clip0_199_83)">
<path d="M14.3551 0.808538L1.24483 8.40923C0.536376 8.81991 0.0999756 9.57892 0.0999756 10.4003V25.6006C0.0999756 26.422 0.536376 27.181 1.24483 27.5917L14.3551 35.1924C15.0635 35.6032 15.9364 35.6032 16.6449 35.1924L29.7552 27.5917C30.4636 27.181 30.9 26.422 30.9 25.6006V10.4003C30.9 9.57892 30.4636 8.81991 29.7552 8.40923L16.6449 0.808538C15.9364 0.397805 15.0636 0.397805 14.3551 0.808538ZM29.3383 25.4896L24.7505 22.8259C24.4652 22.6602 24.465 22.2468 24.7501 22.0809L29.3379 19.4105C29.6237 19.2442 29.9815 19.4512 29.9815 19.7829V25.117C29.9815 25.4485 29.6241 25.6555 29.3383 25.4896ZM6.21918 13.8936L1.66123 16.5332C1.37548 16.6986 1.01848 16.4915 1.01848 16.1603V10.8823C1.01848 10.5511 1.37543 10.344 1.66118 10.5094L6.21913 13.1478C6.50518 13.3134 6.50518 13.7279 6.21918 13.8936V13.8936ZM21.631 13.8868L16.5736 16.8017C16.2876 16.9666 15.931 16.7588 15.9316 16.4277L15.9423 10.5941C15.9429 10.2634 16.2994 10.0569 16.5848 10.222L21.6315 13.1406C21.918 13.3062 21.9177 13.7215 21.631 13.8868ZM22.7254 15.0627V20.904C22.7254 21.2354 22.3679 21.4425 22.0822 21.2766L17.0335 18.3452C16.7476 18.1792 16.7482 17.7645 17.0347 17.5994L22.0834 14.6894C22.3691 14.5247 22.7254 14.7318 22.7254 15.0627ZM24.2864 14.6763L29.3386 17.598C29.6244 17.7633 29.625 18.1772 29.3396 18.3433L24.2874 21.2836C24.0017 21.45 23.6439 21.2429 23.6439 20.9113V15.0492C23.6439 14.7181 24.0007 14.511 24.2864 14.6762V14.6763ZM22.0828 12.3375L17.0537 9.42906C16.7675 9.26358 16.7674 8.84893 17.0535 8.68325L22.0826 5.77087C22.3684 5.60539 22.7254 5.81249 22.7254 6.1437V11.9646C22.7254 12.2957 22.3686 12.5028 22.0828 12.3376V12.3375ZM14.3678 16.7988L9.34593 13.8929C9.05983 13.7274 9.05978 13.3128 9.34578 13.1472L14.3804 10.2313C14.6665 10.0656 15.0239 10.2734 15.0232 10.6051L15.0105 16.4268C15.0098 16.7575 14.6532 16.9639 14.3678 16.7988ZM7.33728 15.0549L7.34412 20.9035C7.34452 21.2354 6.98652 21.4428 6.70057 21.2764L1.65988 18.343C1.37458 18.177 1.37503 17.7633 1.66068 17.5978L6.69453 14.6825C6.98008 14.5172 7.33688 14.7239 7.33728 15.0549ZM8.89848 14.6986L13.9107 17.5998C14.1962 17.7651 14.1969 18.1787 13.9119 18.3448L8.90648 21.2634C8.62093 21.4299 8.26298 21.2233 8.26263 20.8917L8.25583 15.072C8.25543 14.7406 8.61253 14.5331 8.89848 14.6986ZM1.01848 25.1149V19.783C1.01848 19.4513 1.37643 19.2442 1.66228 19.4105L6.23893 22.0737C6.52383 22.2394 6.52403 22.6525 6.23928 22.8185L1.66263 25.4872C1.37678 25.6539 1.01848 25.4468 1.01848 25.1149ZM14.3693 19.1447C14.6547 18.9782 15.0125 19.1846 15.0131 19.5161L15.0235 25.3724C15.0241 25.7043 14.666 25.912 14.3799 25.7455L9.34793 22.8173C9.06313 22.6515 9.06298 22.2387 9.34763 22.0727L14.3693 19.1447V19.1447ZM15.9423 25.394L15.9316 19.5176C15.931 19.1858 16.2888 18.9782 16.5748 19.1443L21.6347 22.0822C21.92 22.2478 21.9202 22.6612 21.6351 22.8271L16.5859 25.7656C16.3005 25.9318 15.943 25.7253 15.9424 25.3941L15.9423 25.394ZM24.7662 13.1431L29.3395 10.5072C29.6252 10.3425 29.9815 10.5496 29.9815 10.8805V16.161C29.9815 16.4921 29.6247 16.6992 29.3389 16.534L24.7656 13.8894C24.4791 13.7238 24.4794 13.3085 24.7661 13.1432L24.7662 13.1431ZM28.8768 8.96476C29.163 9.13064 29.1625 9.54559 28.8759 9.71076L24.2859 12.3566C24.0002 12.5213 23.6439 12.3141 23.6439 11.9833V6.67653C23.6439 6.34522 24.0011 6.13813 24.2869 6.3038L28.8769 8.96476H28.8768ZM15.9479 7.51336L15.9575 2.21997C15.9581 1.88901 16.315 1.68257 16.6005 1.84805L21.1636 4.49329C21.4495 4.65896 21.4494 5.07326 21.1635 5.23884L16.5907 7.88699C16.3046 8.05267 15.9473 7.84497 15.9479 7.51336H15.9479ZM9.82193 4.50157L14.3961 1.8493C14.6821 1.68342 15.0397 1.89112 15.039 2.22278L15.0294 7.51477C15.0288 7.84552 14.6723 8.05202 14.3868 7.88694L9.82233 5.24722C9.53623 5.0818 9.53603 4.66735 9.82193 4.50157ZM13.9246 9.43097L8.89487 12.3441C8.60932 12.5095 8.25248 12.3028 8.25208 11.9718L8.24478 6.16022C8.24438 5.82926 8.60058 5.62171 8.88653 5.78623L13.9236 8.68471C14.2105 8.84979 14.211 9.26504 13.9246 9.43097ZM2.12168 8.96606L6.68393 6.32057C6.96948 6.15499 7.32648 6.36164 7.32693 6.69275L7.33363 11.9828C7.33403 12.3142 6.97687 12.5218 6.69092 12.3563L2.12198 9.71167C1.83603 9.54614 1.83588 9.13184 2.12168 8.96606ZM6.71153 29.6961L2.11818 27.0334C1.83283 26.868 1.83228 26.4547 2.11723 26.2885L6.70388 23.6141C6.98943 23.4477 7.34732 23.6542 7.34772 23.9858L7.35443 29.3228C7.35483 29.6544 6.99747 29.8619 6.71147 29.6961L6.71153 29.6961ZM8.90983 23.6282L13.9441 26.5581C14.229 26.7239 14.229 27.137 13.9441 27.3028L8.91713 30.2283C8.63158 30.3945 8.27398 30.1879 8.27358 29.8565L8.26628 24.0011C8.26588 23.6692 8.62388 23.4618 8.90983 23.6281V23.6282ZM9.83338 30.7617L14.3858 28.1121C14.6713 27.9459 15.0288 28.1523 15.0294 28.4836L15.0391 33.7782C15.0397 34.1099 14.6822 34.3176 14.3961 34.1518L9.83403 31.5068C9.54858 31.3413 9.54823 30.9277 9.83338 30.7617ZM15.9575 33.781L15.9479 28.4722C15.9473 28.1402 16.3054 27.9326 16.5914 28.099L21.1664 30.7611C21.4516 30.9271 21.4513 31.3407 21.1658 31.5062L16.6005 34.1529C16.315 34.3184 15.9581 34.1119 15.9575 33.781ZM17.0558 26.5581L22.0818 23.6332C22.3676 23.4669 22.7254 23.6739 22.7254 24.0056V29.8555C22.7254 30.1872 22.3676 30.3942 22.0818 30.2279L17.0558 27.3029C16.7709 27.1371 16.7709 26.724 17.0558 26.5581ZM23.6439 29.3244V23.9947C23.6439 23.6633 24.0013 23.4562 24.2871 23.6222L28.88 26.289C29.1655 26.4548 29.1654 26.8687 28.8798 27.0343L24.2868 29.6972C24.0011 29.8628 23.6439 29.6557 23.6439 29.3244Z" fill="black"/>
</g>
</mask>
<g mask="url(#mask0_199_83)">
<path d="M-3.78906 -2.45557H34.0109V37.9889H-3.78906V-2.45557Z" fill="url(#paint0_linear_199_83)"/>
</g>
<defs>
<linearGradient id="paint0_linear_199_83" x1="-3.78906" y1="-3.93335" x2="29.8109" y2="37.0555" gradientUnits="userSpaceOnUse">
<stop stop-color="#00FFF7"/>
<stop offset="1" stop-color="#021194"/>
</linearGradient>
<clipPath id="clip0_199_83">
<rect width="30.8" height="35" fill="white" transform="translate(0.0999756 0.5)"/>
</clipPath>
</defs>
</svg>
