<svg xmlns="http://www.w3.org/2000/svg" xmlns:xlink="http://www.w3.org/1999/xlink" width="500" zoomAndPan="magnify" viewBox="0 0 375 374.999991" height="500" preserveAspectRatio="xMidYMid meet" version="1.0"><defs><clipPath id="e601c748b7"><path d="M 118.679688 178 L 187.679688 178 L 187.679688 225.835938 L 118.679688 225.835938 Z M 118.679688 178 " clip-rule="nonzero"/></clipPath><clipPath id="8435c63e2f"><path d="M 118.679688 149.335938 L 187.679688 149.335938 L 187.679688 197 L 118.679688 197 Z M 118.679688 149.335938 " clip-rule="nonzero"/></clipPath><clipPath id="d6c4fb2303"><path d="M 187.5 149.335938 L 276.75 149.335938 L 276.75 225.835938 L 187.5 225.835938 Z M 187.5 149.335938 " clip-rule="nonzero"/></clipPath></defs><g clip-path="url(#e601c748b7)"><path fill="#ffffff" d="M 187.484375 225.664062 L 187.484375 207.851562 L 146.847656 207.851562 L 146.984375 178.167969 L 118.6875 207.535156 L 118.6875 225.664062 Z M 187.484375 225.664062 " fill-opacity="1" fill-rule="nonzero"/></g><g clip-path="url(#8435c63e2f)"><path fill="#ffffff" d="M 118.6875 149.335938 L 118.6875 167.148438 L 159.324219 167.148438 L 159.1875 196.832031 L 187.484375 167.464844 L 187.484375 149.335938 Z M 118.6875 149.335938 " fill-opacity="1" fill-rule="nonzero"/></g><g clip-path="url(#d6c4fb2303)"><path fill="#ffffff" d="M 249.683594 217.140625 L 258.199219 225.65625 L 276.890625 225.65625 L 258.375 207.140625 C 261.824219 201.402344 263.808594 194.683594 263.808594 187.507812 C 263.808594 166.433594 246.734375 149.34375 225.660156 149.34375 C 223.625 149.34375 221.640625 149.511719 219.691406 149.804688 L 233.5625 163.683594 C 243.550781 166.992188 250.753906 176.410156 250.753906 187.507812 C 250.753906 191.042969 250.015625 194.414062 248.691406 197.46875 L 243.488281 192.265625 L 224.808594 192.265625 Z M 225.660156 225.65625 L 242.253906 225.65625 L 239.621094 223.019531 L 228.96875 212.382812 C 227.886719 212.523438 226.78125 212.597656 225.660156 212.597656 C 211.792969 212.597656 200.554688 201.363281 200.554688 187.507812 C 200.554688 177.1875 206.777344 168.328125 215.671875 164.472656 L 206 154.789062 C 194.917969 161.472656 187.5 173.625 187.5 187.507812 C 187.5 208.578125 204.589844 225.65625 225.660156 225.65625 Z M 225.660156 225.65625 " fill-opacity="1" fill-rule="evenodd"/></g></svg>