<svg xmlns="http://www.w3.org/2000/svg" xmlns:xlink="http://www.w3.org/1999/xlink" width="500" zoomAndPan="magnify" viewBox="0 0 375 374.999991" height="500" preserveAspectRatio="xMidYMid meet" version="1.0"><defs><g/><clipPath id="ae95374737"><path d="M 114.847656 134 L 183.847656 134 L 183.847656 182.5625 L 114.847656 182.5625 Z M 114.847656 134 " clip-rule="nonzero"/></clipPath><clipPath id="4e02144eaa"><path d="M 114.847656 106.0625 L 183.847656 106.0625 L 183.847656 154 L 114.847656 154 Z M 114.847656 106.0625 " clip-rule="nonzero"/></clipPath><clipPath id="583236abde"><path d="M 180.082031 106.0625 L 269.332031 106.0625 L 269.332031 182.5625 L 180.082031 182.5625 Z M 180.082031 106.0625 " clip-rule="nonzero"/></clipPath></defs><g clip-path="url(#ae95374737)"><path fill="#ffffff" d="M 183.652344 182.386719 L 183.652344 164.578125 L 143.015625 164.578125 L 143.152344 134.894531 L 114.855469 164.257812 L 114.855469 182.386719 Z M 183.652344 182.386719 " fill-opacity="1" fill-rule="nonzero"/></g><g clip-path="url(#4e02144eaa)"><path fill="#ffffff" d="M 114.855469 106.0625 L 114.855469 123.871094 L 155.492188 123.871094 L 155.355469 153.554688 L 183.652344 124.1875 L 183.652344 106.0625 Z M 114.855469 106.0625 " fill-opacity="1" fill-rule="nonzero"/></g><g fill="#ffffff" fill-opacity="1"><g transform="translate(112.312117, 204.367019)"><g><path d="M 11.828125 -1.640625 L 11.828125 0 L 0.8125 0 L 0.8125 -1.28125 L 9.09375 -11.546875 L 0.9375 -11.546875 L 0.9375 -13.1875 L 11.578125 -13.1875 L 11.578125 -11.90625 L 3.328125 -1.640625 Z M 11.828125 -1.640625 "/></g></g></g><g fill="#ffffff" fill-opacity="1"><g transform="translate(126.352918, 204.367019)"><g><path d="M 10.375 -3.296875 L 3.375 -3.296875 L 1.921875 0 L -0.015625 0 L 5.953125 -13.1875 L 7.8125 -13.1875 L 13.796875 0 L 11.828125 0 Z M 9.71875 -4.796875 L 6.875 -11.265625 L 4.03125 -4.796875 Z M 9.71875 -4.796875 "/></g></g></g><g fill="#ffffff" fill-opacity="1"><g transform="translate(141.805245, 204.367019)"><g><path d="M 1.984375 -13.1875 L 3.859375 -13.1875 L 3.859375 0 L 1.984375 0 Z M 1.984375 -13.1875 "/></g></g></g><g fill="#ffffff" fill-opacity="1"><g transform="translate(149.315395, 204.367019)"><g><path d="M 1.984375 -13.1875 L 7.53125 -13.1875 C 8.925781 -13.1875 10.160156 -12.90625 11.234375 -12.34375 C 12.316406 -11.789062 13.15625 -11.015625 13.75 -10.015625 C 14.34375 -9.023438 14.640625 -7.882812 14.640625 -6.59375 C 14.640625 -5.300781 14.34375 -4.15625 13.75 -3.15625 C 13.15625 -2.15625 12.316406 -1.378906 11.234375 -0.828125 C 10.160156 -0.273438 8.925781 0 7.53125 0 L 1.984375 0 Z M 7.421875 -1.640625 C 8.484375 -1.640625 9.421875 -1.84375 10.234375 -2.25 C 11.046875 -2.664062 11.671875 -3.25 12.109375 -4 C 12.546875 -4.75 12.765625 -5.613281 12.765625 -6.59375 C 12.765625 -7.570312 12.546875 -8.429688 12.109375 -9.171875 C 11.671875 -9.921875 11.046875 -10.503906 10.234375 -10.921875 C 9.421875 -11.335938 8.484375 -11.546875 7.421875 -11.546875 L 3.859375 -11.546875 L 3.859375 -1.640625 Z M 7.421875 -1.640625 "/></g></g></g><g fill="#ffffff" fill-opacity="1"><g transform="translate(166.536841, 204.367019)"><g/></g></g><g fill="#ffffff" fill-opacity="1"><g transform="translate(173.275351, 204.367019)"><g><path d="M 15.546875 1.203125 C 15.117188 1.703125 14.625 2.082031 14.0625 2.34375 C 13.5 2.613281 12.890625 2.75 12.234375 2.75 C 11.410156 2.75 10.632812 2.550781 9.90625 2.15625 C 9.1875 1.757812 8.363281 1.082031 7.4375 0.125 C 6.195312 0.0625 5.078125 -0.265625 4.078125 -0.859375 C 3.078125 -1.460938 2.296875 -2.265625 1.734375 -3.265625 C 1.179688 -4.265625 0.90625 -5.375 0.90625 -6.59375 C 0.90625 -7.851562 1.207031 -9 1.8125 -10.03125 C 2.425781 -11.0625 3.265625 -11.867188 4.328125 -12.453125 C 5.398438 -13.035156 6.597656 -13.328125 7.921875 -13.328125 C 9.242188 -13.328125 10.4375 -13.035156 11.5 -12.453125 C 12.570312 -11.867188 13.40625 -11.066406 14 -10.046875 C 14.601562 -9.023438 14.90625 -7.875 14.90625 -6.59375 C 14.90625 -5.507812 14.6875 -4.515625 14.25 -3.609375 C 13.820312 -2.710938 13.21875 -1.957031 12.4375 -1.34375 C 11.65625 -0.726562 10.753906 -0.300781 9.734375 -0.0625 C 10.171875 0.40625 10.59375 0.742188 11 0.953125 C 11.40625 1.160156 11.820312 1.265625 12.25 1.265625 C 13.1875 1.265625 13.992188 0.882812 14.671875 0.125 Z M 2.78125 -6.59375 C 2.78125 -5.632812 3.003906 -4.769531 3.453125 -4 C 3.898438 -3.226562 4.515625 -2.625 5.296875 -2.1875 C 6.085938 -1.75 6.960938 -1.53125 7.921875 -1.53125 C 8.878906 -1.53125 9.742188 -1.75 10.515625 -2.1875 C 11.296875 -2.625 11.910156 -3.226562 12.359375 -4 C 12.804688 -4.769531 13.03125 -5.632812 13.03125 -6.59375 C 13.03125 -7.539062 12.804688 -8.398438 12.359375 -9.171875 C 11.910156 -9.953125 11.296875 -10.5625 10.515625 -11 C 9.742188 -11.4375 8.878906 -11.65625 7.921875 -11.65625 C 6.960938 -11.65625 6.085938 -11.4375 5.296875 -11 C 4.515625 -10.5625 3.898438 -9.953125 3.453125 -9.171875 C 3.003906 -8.398438 2.78125 -7.539062 2.78125 -6.59375 Z M 2.78125 -6.59375 "/></g></g></g><g fill="#ffffff" fill-opacity="1"><g transform="translate(190.760273, 204.367019)"><g><path d="M 7.921875 0.15625 C 6.597656 0.15625 5.398438 -0.132812 4.328125 -0.71875 C 3.265625 -1.300781 2.425781 -2.109375 1.8125 -3.140625 C 1.207031 -4.171875 0.90625 -5.320312 0.90625 -6.59375 C 0.90625 -7.851562 1.207031 -9 1.8125 -10.03125 C 2.425781 -11.0625 3.265625 -11.867188 4.328125 -12.453125 C 5.398438 -13.035156 6.597656 -13.328125 7.921875 -13.328125 C 9.242188 -13.328125 10.4375 -13.035156 11.5 -12.453125 C 12.570312 -11.867188 13.40625 -11.066406 14 -10.046875 C 14.601562 -9.023438 14.90625 -7.875 14.90625 -6.59375 C 14.90625 -5.3125 14.601562 -4.15625 14 -3.125 C 13.40625 -2.101562 12.570312 -1.300781 11.5 -0.71875 C 10.4375 -0.132812 9.242188 0.15625 7.921875 0.15625 Z M 7.921875 -1.53125 C 8.890625 -1.53125 9.757812 -1.75 10.53125 -2.1875 C 11.300781 -2.625 11.910156 -3.226562 12.359375 -4 C 12.804688 -4.769531 13.03125 -5.632812 13.03125 -6.59375 C 13.03125 -7.539062 12.804688 -8.398438 12.359375 -9.171875 C 11.910156 -9.953125 11.300781 -10.5625 10.53125 -11 C 9.757812 -11.4375 8.890625 -11.65625 7.921875 -11.65625 C 6.960938 -11.65625 6.085938 -11.4375 5.296875 -11 C 4.515625 -10.5625 3.898438 -9.953125 3.453125 -9.171875 C 3.003906 -8.398438 2.78125 -7.539062 2.78125 -6.59375 C 2.78125 -5.632812 3.003906 -4.769531 3.453125 -4 C 3.898438 -3.226562 4.515625 -2.625 5.296875 -2.1875 C 6.085938 -1.75 6.960938 -1.53125 7.921875 -1.53125 Z M 7.921875 -1.53125 "/></g></g></g><g fill="#ffffff" fill-opacity="1"><g transform="translate(208.245196, 204.367019)"><g><path d="M 7.4375 0.15625 C 5.675781 0.15625 4.304688 -0.34375 3.328125 -1.34375 C 2.347656 -2.351562 1.859375 -3.800781 1.859375 -5.6875 L 1.859375 -13.1875 L 3.75 -13.1875 L 3.75 -5.765625 C 3.75 -2.941406 4.984375 -1.53125 7.453125 -1.53125 C 8.660156 -1.53125 9.582031 -1.875 10.21875 -2.5625 C 10.863281 -3.257812 11.1875 -4.328125 11.1875 -5.765625 L 11.1875 -13.1875 L 13.015625 -13.1875 L 13.015625 -5.6875 C 13.015625 -3.789062 12.523438 -2.34375 11.546875 -1.34375 C 10.566406 -0.34375 9.195312 0.15625 7.4375 0.15625 Z M 7.4375 0.15625 "/></g></g></g><g fill="#ffffff" fill-opacity="1"><g transform="translate(224.807932, 204.367019)"><g><path d="M 10.78125 0 L 7.953125 -4.046875 C 7.597656 -4.023438 7.316406 -4.015625 7.109375 -4.015625 L 3.859375 -4.015625 L 3.859375 0 L 1.984375 0 L 1.984375 -13.1875 L 7.109375 -13.1875 C 8.816406 -13.1875 10.160156 -12.773438 11.140625 -11.953125 C 12.117188 -11.140625 12.609375 -10.015625 12.609375 -8.578125 C 12.609375 -7.566406 12.359375 -6.703125 11.859375 -5.984375 C 11.359375 -5.273438 10.644531 -4.753906 9.71875 -4.421875 L 12.84375 0 Z M 7.0625 -5.609375 C 8.25 -5.609375 9.15625 -5.863281 9.78125 -6.375 C 10.414062 -6.894531 10.734375 -7.628906 10.734375 -8.578125 C 10.734375 -9.535156 10.414062 -10.269531 9.78125 -10.78125 C 9.15625 -11.289062 8.25 -11.546875 7.0625 -11.546875 L 3.859375 -11.546875 L 3.859375 -5.609375 Z M 7.0625 -5.609375 "/></g></g></g><g fill="#ffffff" fill-opacity="1"><g transform="translate(240.166165, 204.367019)"><g><path d="M 10.375 -3.296875 L 3.375 -3.296875 L 1.921875 0 L -0.015625 0 L 5.953125 -13.1875 L 7.8125 -13.1875 L 13.796875 0 L 11.828125 0 Z M 9.71875 -4.796875 L 6.875 -11.265625 L 4.03125 -4.796875 Z M 9.71875 -4.796875 "/></g></g></g><g fill="#ffffff" fill-opacity="1"><g transform="translate(255.618492, 204.367019)"><g><path d="M 13.3125 -13.1875 L 13.3125 0 L 11.421875 0 L 11.421875 -5.875 L 3.859375 -5.875 L 3.859375 0 L 1.984375 0 L 1.984375 -13.1875 L 3.859375 -13.1875 L 3.859375 -7.515625 L 11.421875 -7.515625 L 11.421875 -13.1875 Z M 13.3125 -13.1875 "/></g></g></g><g clip-path="url(#583236abde)"><path fill="#ffffff" d="M 242.269531 173.867188 L 250.78125 182.378906 L 269.472656 182.378906 L 250.960938 163.863281 C 254.40625 158.125 256.394531 151.40625 256.394531 144.230469 C 256.394531 123.15625 239.316406 106.070312 218.246094 106.070312 C 216.207031 106.070312 214.222656 106.234375 212.277344 106.527344 L 226.144531 120.410156 C 236.136719 123.71875 243.335938 133.132812 243.335938 144.230469 C 243.335938 147.765625 242.597656 151.140625 241.277344 154.191406 L 236.070312 148.988281 L 217.390625 148.988281 Z M 218.246094 182.378906 L 234.835938 182.378906 L 232.203125 179.746094 L 221.550781 169.105469 C 220.472656 169.246094 219.363281 169.324219 218.246094 169.324219 C 204.375 169.324219 193.136719 158.085938 193.136719 144.230469 C 193.136719 133.910156 199.359375 125.054688 208.253906 121.199219 L 198.585938 111.515625 C 187.5 118.195312 180.082031 130.347656 180.082031 144.230469 C 180.082031 165.300781 197.171875 182.378906 218.246094 182.378906 Z M 218.246094 182.378906 " fill-opacity="1" fill-rule="evenodd"/></g></svg>